<svg width="50" height="32" viewBox="0 0 50 32" fill="none" xmlns="http://www.w3.org/2000/svg">
<g clip-path="url(#clip0_3047_21511)">
<path d="M8.0488 22.0269L8.041 22.0186L3.63494 17.7795L7.05369 14.7219C7.45144 14.3588 7.31576 14.0425 7.13177 13.841L6.65691 13.3207C6.40068 13.0401 6.07858 13.0396 5.77257 13.3188L4.9634 14.0577L2.07223 16.6502V9.66431C2.07223 9.12551 1.71791 9.01228 1.4202 9.01228H0.652025C0.237676 9.01228 0 9.24996 0 9.66431V22.2744C0 22.6887 0.237676 22.9264 0.652025 22.9264H1.4202C1.83455 22.9264 2.07223 22.6887 2.07223 22.2744V18.9503L5.81454 22.5247C6.00635 22.7531 6.18643 22.9259 6.54661 22.9259H7.68961C8.04246 22.9259 8.16935 22.7234 8.20791 22.636C8.26696 22.5018 8.28746 22.2866 8.0488 22.0264V22.0269Z" fill="white"/>
<path d="M49.6321 21.8908L49.6242 21.8825L45.2182 17.6433L48.6369 14.5857C49.0347 14.2226 48.899 13.9064 48.715 13.7048L48.2402 13.1846C47.9839 12.9039 47.6618 12.9034 47.3558 13.1826L46.5466 13.9215L43.6555 16.514V9.52814C43.6555 8.98934 43.3012 8.87611 43.0035 8.87611H42.2353C41.8209 8.87611 41.5833 9.11379 41.5833 9.52814V22.1382C41.5833 22.5525 41.8209 22.7902 42.2353 22.7902H43.0035C43.4178 22.7902 43.6555 22.5525 43.6555 22.1382V18.8141L47.3978 22.3886C47.5896 22.617 47.7697 22.7897 48.1299 22.7897H49.2729C49.6252 22.7897 49.7526 22.5872 49.7912 22.4998C49.8502 22.3656 49.8707 22.1504 49.6321 21.8903V21.8908Z" fill="white"/>
<path d="M14.4056 12.9064C13.0991 12.9064 12.2016 13.5867 11.6233 14.289L11.5681 13.6663L11.5462 13.614C11.4822 13.4613 11.3334 13.1031 10.9049 13.1031H10.4583C10.0557 13.1031 9.82434 13.3407 9.82434 13.7551V22.2748C9.82434 22.6892 10.0552 22.9269 10.4583 22.9269H11.2621C11.6652 22.9269 11.8961 22.6892 11.8961 22.2748V17.7736C11.8961 16.3222 12.6477 14.8532 14.0845 14.8532C15.5213 14.8532 16.2367 15.8722 16.2367 17.6487V22.2748C16.2367 22.6892 16.4676 22.9269 16.8707 22.9269H17.6745C18.0776 22.9269 18.3085 22.6892 18.3085 22.2748V17.2914C18.3085 15.8468 17.9185 14.7234 17.1499 13.9518C16.4686 13.268 15.5193 12.9064 14.4056 12.9064V12.9064Z" fill="white"/>
<path d="M24.7828 12.9064C21.9907 12.9064 19.7194 15.2021 19.7194 18.0235C19.7194 20.8449 21.9907 23.1226 24.7828 23.1226C27.5749 23.1226 29.8463 20.8351 29.8463 18.0235C29.8463 15.2119 27.5749 12.9064 24.7828 12.9064V12.9064ZM24.7828 21.1938C23.1332 21.1938 21.7911 19.7717 21.7911 18.0235C21.7911 16.2753 23.1332 14.8532 24.7828 14.8532C26.4324 14.8532 27.7926 16.2753 27.7926 18.0235C27.7926 19.7717 26.4422 21.1938 24.7828 21.1938V21.1938Z" fill="white"/>
<path d="M39.0274 20.3554C38.9625 20.2734 38.8004 20.0865 38.5432 20.0865C38.391 20.0865 38.247 20.1528 38.1167 20.2831C37.5491 20.8507 36.7384 21.1763 35.8927 21.1763C34.205 21.1763 32.8829 19.7912 32.8829 18.0235C32.8829 16.2558 34.2333 14.8532 35.8927 14.8532C36.7384 14.8532 37.5491 15.1787 38.1167 15.7463C38.2475 15.8766 38.391 15.943 38.5432 15.943C38.8004 15.943 38.9625 15.7561 39.0274 15.6741L39.4432 15.2407L39.4529 15.2304C39.5447 15.1275 39.6647 14.9659 39.6516 14.7546C39.6379 14.5384 39.4905 14.3988 39.4295 14.3446C38.4842 13.4037 37.2553 12.9064 35.8746 12.9064C33.0923 12.9064 30.8287 15.2021 30.8287 18.0235C30.8287 19.3847 31.35 20.6638 32.2958 21.6248C33.2465 22.5906 34.5174 23.1226 35.8746 23.1226C37.2319 23.1226 38.4837 22.6253 39.429 21.6843C39.49 21.6301 39.6374 21.491 39.6511 21.2748C39.6643 21.0635 39.5442 20.902 39.4525 20.799L39.0269 20.3554H39.0274Z" fill="white"/>
</g>
<defs>
<clipPath id="clip0_3047_21511">
<rect width="49.8297" height="31.9987" fill="white"/>
</clipPath>
</defs>
</svg>
